# xmcd
#
# Track frame offsets:
#	150
#	18046
#	40578
#	57469
#	73040
#	91091
#	110177
#	126064
#	155566
#	181932
#	197111
#	213911
#
# Disc length: 3093 seconds
#
# Revision: 1
# Processed by: cddbd v1.5.2PL0 Copyright (c) Steve Scherf et al.
# Submitted via: audiograbber 1.83.01
#
DISCID=a00c130c
DTITLE=CD Pool - Urban February 2011 CD1
DYEAR=2011
DGENRE=R&B
TTITLE0=Lupe Fiasco - The Show Goes On (Clean Version)
TTITLE1=Kanye West - All Of The Lights (Explicit Album Version)
TTITLE2=Gappy Ranks - English Money
TTITLE3=Elephant Man Ft Bounty Killer - Life Of The Party
TTITLE4=Salgon - The Greatest Story Never Told (Dirty Version)
TTITLE5=Jamieson Ft Sean Price - My Way (Dirty Version)
TTITLE6=Princess Nyah - Take Control (Radio Edit)
TTITLE7=Fredriko - Champagne (DJ Naughty Remix)
TTITLE8=TANGA - Sexy Eyes (All Good Funk Alliance Latin Funk Remix)
TTITLE9=MSD - Hush (Radio Edit)
TTITLE10=Erick Sermon Ft Marvin Gaye - Music (Album Version)
TTITLE11=702 Ft Missy Elliott - Steelo
EXTD=
EXTT0=
EXTT1=
EXTT2=
EXTT3=
EXTT4=
EXTT5=
EXTT6=
EXTT7=
EXTT8=
EXTT9=
EXTT10=
EXTT11=
PLAYORDER=
